<svg width="742" height="484" viewBox="0 0 742 484" fill="none" xmlns="http://www.w3.org/2000/svg">
<g filter="url(#filter0_d_87_1117)">
<rect x="3.99902" width="734" height="476" rx="24" fill="black" shape-rendering="crispEdges"/>
<path d="M32.999 20C32.999 17.7909 34.7899 16 36.999 16C39.2082 16 40.999 17.7909 40.999 20C40.999 22.2091 39.2082 24 36.999 24C34.7899 24 32.999 22.2091 32.999 20Z" fill="#FF8585"/>
<path fill-rule="evenodd" clip-rule="evenodd" d="M33.999 20C33.999 21.6569 35.3422 23 36.999 23C38.6559 23 39.999 21.6569 39.999 20C39.999 18.3431 38.6559 17 36.999 17C35.3422 17 33.999 18.3431 33.999 20ZM36.999 16C34.7899 16 32.999 17.7909 32.999 20C32.999 22.2091 34.7899 24 36.999 24C39.2082 24 40.999 22.2091 40.999 20C40.999 17.7909 39.2082 16 36.999 16Z" fill="#18181B" fill-opacity="0.08"/>
<path d="M45.999 20C45.999 17.7909 47.7899 16 49.999 16C52.2082 16 53.999 17.7909 53.999 20C53.999 22.2091 52.2082 24 49.999 24C47.7899 24 45.999 22.2091 45.999 20Z" fill="#FFCE85"/>
<path fill-rule="evenodd" clip-rule="evenodd" d="M46.999 20C46.999 21.6569 48.3422 23 49.999 23C51.6559 23 52.999 21.6569 52.999 20C52.999 18.3431 51.6559 17 49.999 17C48.3422 17 46.999 18.3431 46.999 20ZM49.999 16C47.7899 16 45.999 17.7909 45.999 20C45.999 22.2091 47.7899 24 49.999 24C52.2082 24 53.999 22.2091 53.999 20C53.999 17.7909 52.2082 16 49.999 16Z" fill="#18181B" fill-opacity="0.08"/>
<path d="M58.999 20C58.999 17.7909 60.7899 16 62.999 16C65.2082 16 66.999 17.7909 66.999 20C66.999 22.2091 65.2082 24 62.999 24C60.7899 24 58.999 22.2091 58.999 20Z" fill="#C6FF85"/>
<path fill-rule="evenodd" clip-rule="evenodd" d="M59.999 20C59.999 21.6569 61.3422 23 62.999 23C64.6559 23 65.999 21.6569 65.999 20C65.999 18.3431 64.6559 17 62.999 17C61.3422 17 59.999 18.3431 59.999 20ZM62.999 16C60.7899 16 58.999 17.7909 58.999 20C58.999 22.2091 60.7899 24 62.999 24C65.2082 24 66.999 22.2091 66.999 20C66.999 17.7909 65.2082 16 62.999 16Z" fill="#18181B" fill-opacity="0.08"/>
<rect x="317.999" y="10" width="106" height="18" rx="5" fill="#F4F3F8"/>
<path d="M327.633 24H332.245C332.986 24 333.379 23.5922 333.379 22.7869V19.2752C333.379 18.4699 332.986 18.0673 332.245 18.0673H327.633C326.892 18.0673 326.499 18.4699 326.499 19.2752V22.7869C326.499 23.5922 326.892 24 327.633 24ZM327.381 18.4597H328.182V16.737C328.182 15.4526 328.994 14.7696 329.936 14.7696C330.879 14.7696 331.7 15.4526 331.7 16.737V18.4597H332.497V16.8491C332.497 14.9327 331.257 14 329.936 14C328.621 14 327.381 14.9327 327.381 16.8491V18.4597Z" fill="#B3B3BC"/>
<rect x="11.999" y="38" width="718" height="403" rx="16" fill="#F4F3F8"/>
<path d="M405.443 21.2V16.1H406.193V17.3H406.243V21.2H405.443ZM408.883 21.2V17.82C408.883 17.4333 408.797 17.15 408.623 16.97C408.45 16.79 408.2 16.7 407.873 16.7C407.567 16.7 407.29 16.7733 407.043 16.92C406.797 17.0667 406.6 17.27 406.453 17.53C406.313 17.79 406.243 18.0933 406.243 18.44L406.113 17.23C406.287 16.85 406.547 16.55 406.893 16.33C407.24 16.11 407.617 16 408.023 16C408.517 16 408.917 16.1467 409.223 16.44C409.53 16.7267 409.683 17.1167 409.683 17.61V21.2H408.883ZM412.323 21.2V17.82C412.323 17.4333 412.237 17.15 412.063 16.97C411.89 16.79 411.64 16.7 411.313 16.7C411.007 16.7 410.73 16.7733 410.483 16.92C410.237 17.0667 410.04 17.27 409.893 17.53C409.753 17.79 409.683 18.0933 409.683 18.44L409.483 17.23C409.657 16.85 409.923 16.55 410.283 16.33C410.643 16.11 411.03 16 411.443 16C411.937 16 412.34 16.1467 412.653 16.44C412.967 16.7267 413.123 17.1167 413.123 17.61V21.2H412.323Z" fill="black"/>
<path d="M402.124 21.3C401.624 21.3 401.184 21.1833 400.804 20.95C400.424 20.7167 400.127 20.4 399.914 20C399.707 19.5933 399.604 19.1367 399.604 18.63C399.604 18.1167 399.71 17.6633 399.924 17.27C400.137 16.8767 400.43 16.5667 400.804 16.34C401.184 16.1133 401.624 16 402.124 16C402.63 16 403.07 16.1133 403.444 16.34C403.824 16.5667 404.117 16.8767 404.324 17.27C404.537 17.6633 404.644 18.1167 404.644 18.63C404.644 19.1367 404.537 19.5933 404.324 20C404.117 20.4 403.824 20.7167 403.444 20.95C403.07 21.1833 402.63 21.3 402.124 21.3ZM402.124 20.62C402.47 20.62 402.77 20.5367 403.024 20.37C403.277 20.1967 403.474 19.96 403.614 19.66C403.754 19.36 403.824 19.0133 403.824 18.62C403.824 18.0333 403.667 17.5633 403.354 17.21C403.047 16.8567 402.637 16.68 402.124 16.68C401.617 16.68 401.207 16.8567 400.894 17.21C400.58 17.5633 400.424 18.0333 400.424 18.62C400.424 19.0133 400.494 19.36 400.634 19.66C400.774 19.96 400.97 20.1967 401.224 20.37C401.484 20.5367 401.784 20.62 402.124 20.62Z" fill="black"/>
<path d="M397.111 21.3C396.645 21.3 396.228 21.1867 395.861 20.96C395.501 20.7267 395.215 20.41 395.001 20.01C394.795 19.6033 394.691 19.1433 394.691 18.63C394.691 18.1167 394.795 17.6633 395.001 17.27C395.215 16.8767 395.501 16.5667 395.861 16.34C396.228 16.1133 396.641 16 397.101 16C397.481 16 397.821 16.0733 398.121 16.22C398.428 16.3667 398.678 16.5767 398.871 16.85C399.071 17.1167 399.198 17.43 399.251 17.79H398.511C398.445 17.4633 398.291 17.1967 398.051 16.99C397.811 16.7833 397.501 16.68 397.121 16.68C396.795 16.68 396.511 16.76 396.271 16.92C396.031 17.08 395.845 17.3067 395.711 17.6C395.578 17.8933 395.511 18.2367 395.511 18.63C395.511 19.0233 395.578 19.37 395.711 19.67C395.845 19.97 396.031 20.2033 396.271 20.37C396.518 20.5367 396.805 20.62 397.131 20.62C397.498 20.62 397.805 20.52 398.051 20.32C398.298 20.1133 398.455 19.8467 398.521 19.52H399.261C399.201 19.8733 399.068 20.1867 398.861 20.46C398.661 20.7267 398.411 20.9333 398.111 21.08C397.811 21.2267 397.478 21.3 397.111 21.3Z" fill="black"/>
<path d="M393.42 21.1999V20.1699H394.45V21.1999H393.42Z" fill="black"/>
<path d="M390.756 21.3C390.269 21.3 389.839 21.1867 389.466 20.96C389.092 20.7267 388.799 20.41 388.586 20.01C388.372 19.61 388.266 19.15 388.266 18.63C388.266 18.11 388.369 17.6533 388.576 17.26C388.789 16.86 389.086 16.55 389.466 16.33C389.846 16.11 390.282 16 390.776 16C391.249 16 391.659 16.1033 392.006 16.31C392.359 16.5167 392.629 16.8067 392.816 17.18C393.009 17.5533 393.106 17.9933 393.106 18.5C393.106 18.5667 393.102 18.63 393.096 18.69C393.096 18.75 393.089 18.8167 393.076 18.89H388.866V18.22H392.586L392.326 18.59C392.326 17.9767 392.189 17.5067 391.916 17.18C391.649 16.8467 391.269 16.68 390.776 16.68C390.269 16.68 389.859 16.8567 389.546 17.21C389.239 17.5567 389.086 18.0267 389.086 18.62C389.086 19.2267 389.239 19.7133 389.546 20.08C389.859 20.44 390.276 20.62 390.796 20.62C391.122 20.62 391.409 20.55 391.656 20.41C391.902 20.2633 392.082 20.0567 392.196 19.79H392.956C392.789 20.2567 392.509 20.6267 392.116 20.9C391.729 21.1667 391.276 21.3 390.756 21.3Z" fill="black"/>
<path d="M385.892 21.3C385.265 21.3 384.765 21.1567 384.392 20.87C384.019 20.5767 383.805 20.1633 383.752 19.63H384.522C384.569 19.9567 384.712 20.2067 384.952 20.38C385.192 20.5533 385.512 20.64 385.912 20.64C386.265 20.64 386.542 20.5733 386.742 20.44C386.942 20.3067 387.042 20.1167 387.042 19.87C387.042 19.6967 386.985 19.5467 386.872 19.42C386.759 19.2867 386.532 19.1767 386.192 19.09L385.372 18.88C384.905 18.76 384.555 18.5767 384.322 18.33C384.089 18.0767 383.972 17.7767 383.972 17.43C383.972 16.99 384.135 16.6433 384.462 16.39C384.789 16.13 385.232 16 385.792 16C386.345 16 386.795 16.1333 387.142 16.4C387.489 16.6667 387.685 17.0367 387.732 17.51H386.962C386.915 17.2367 386.789 17.0267 386.582 16.88C386.375 16.7333 386.102 16.66 385.762 16.66C385.435 16.66 385.182 16.7233 385.002 16.85C384.822 16.97 384.732 17.1433 384.732 17.37C384.732 17.5433 384.795 17.6933 384.922 17.82C385.055 17.9467 385.275 18.0533 385.582 18.14L386.382 18.36C386.855 18.4867 387.212 18.68 387.452 18.94C387.692 19.2 387.812 19.5133 387.812 19.88C387.812 20.3267 387.642 20.6767 387.302 20.93C386.962 21.1767 386.492 21.3 385.892 21.3Z" fill="black"/>
<path d="M382.16 21.2V14H382.96V21.2H382.16Z" fill="black"/>
<path d="M378.331 21.2996C377.998 21.2996 377.701 21.2329 377.441 21.0996C377.181 20.9596 376.978 20.7663 376.831 20.5196C376.685 20.2663 376.611 19.9763 376.611 19.6496V16.0996H377.411V19.4396C377.411 19.8263 377.505 20.1163 377.691 20.3096C377.885 20.5029 378.158 20.5996 378.511 20.5996C378.831 20.5996 379.115 20.5263 379.361 20.3796C379.608 20.2329 379.801 20.0296 379.941 19.7696C380.088 19.5029 380.161 19.1996 380.161 18.8596L380.291 20.0696C380.125 20.4496 379.865 20.7496 379.511 20.9696C379.158 21.1896 378.765 21.2996 378.331 21.2996ZM380.211 21.1996V19.9996H380.161V16.0996H380.961V21.1996H380.211Z" fill="black"/>
<path d="M373.528 21.29C373.048 21.29 372.644 21.1733 372.318 20.94C371.991 20.7067 371.768 20.3767 371.648 19.95L371.808 19.93V23.25H371.008V16.1H371.758V17.29L371.648 17.26C371.774 16.8667 372.014 16.56 372.368 16.34C372.721 16.1133 373.131 16 373.598 16C374.051 16 374.444 16.11 374.778 16.33C375.118 16.55 375.381 16.8567 375.568 17.25C375.754 17.6433 375.848 18.1033 375.848 18.63C375.848 19.1633 375.751 19.63 375.558 20.03C375.364 20.43 375.094 20.74 374.748 20.96C374.401 21.18 373.994 21.29 373.528 21.29ZM373.408 20.59C373.914 20.59 374.311 20.4167 374.598 20.07C374.884 19.7167 375.028 19.2367 375.028 18.63C375.028 18.03 374.884 17.56 374.598 17.22C374.311 16.8733 373.914 16.7 373.408 16.7C372.901 16.7 372.501 16.8767 372.208 17.23C371.914 17.5767 371.768 18.0533 371.768 18.66C371.768 19.2533 371.914 19.7233 372.208 20.07C372.501 20.4167 372.901 20.59 373.408 20.59Z" fill="black"/>
<path d="M369.678 21.2904C369.111 21.2904 368.698 21.1637 368.438 20.9104C368.184 20.6504 368.058 20.277 368.058 19.7904V14.9104L368.858 14.6104V19.7804C368.858 20.067 368.931 20.277 369.078 20.4104C369.224 20.5437 369.464 20.6104 369.798 20.6104C369.931 20.6104 370.044 20.6037 370.138 20.5904C370.238 20.5704 370.318 20.547 370.378 20.5204V21.2004C370.311 21.227 370.214 21.247 370.088 21.2604C369.968 21.2804 369.831 21.2904 369.678 21.2904ZM367.008 16.7804V16.1004H370.378V16.7804H367.008Z" fill="black"/>
<path d="M364.542 21.3C364.055 21.3 363.625 21.1867 363.252 20.96C362.878 20.7267 362.585 20.41 362.372 20.01C362.158 19.61 362.052 19.15 362.052 18.63C362.052 18.11 362.155 17.6533 362.362 17.26C362.575 16.86 362.872 16.55 363.252 16.33C363.632 16.11 364.068 16 364.562 16C365.035 16 365.445 16.1033 365.792 16.31C366.145 16.5167 366.415 16.8067 366.602 17.18C366.795 17.5533 366.892 17.9933 366.892 18.5C366.892 18.5667 366.888 18.63 366.882 18.69C366.882 18.75 366.875 18.8167 366.862 18.89H362.652V18.22H366.372L366.112 18.59C366.112 17.9767 365.975 17.5067 365.702 17.18C365.435 16.8467 365.055 16.68 364.562 16.68C364.055 16.68 363.645 16.8567 363.332 17.21C363.025 17.5567 362.872 18.0267 362.872 18.62C362.872 19.2267 363.025 19.7133 363.332 20.08C363.645 20.44 364.062 20.62 364.582 20.62C364.908 20.62 365.195 20.55 365.442 20.41C365.688 20.2633 365.868 20.0567 365.982 19.79H366.742C366.575 20.2567 366.295 20.6267 365.902 20.9C365.515 21.1667 365.062 21.3 364.542 21.3Z" fill="black"/>
<path d="M359.298 21.3C358.811 21.3 358.381 21.1867 358.008 20.96C357.634 20.7267 357.341 20.41 357.128 20.01C356.914 19.61 356.808 19.15 356.808 18.63C356.808 18.11 356.911 17.6533 357.118 17.26C357.331 16.86 357.628 16.55 358.008 16.33C358.388 16.11 358.824 16 359.318 16C359.791 16 360.201 16.1033 360.548 16.31C360.901 16.5167 361.171 16.8067 361.358 17.18C361.551 17.5533 361.648 17.9933 361.648 18.5C361.648 18.5667 361.644 18.63 361.638 18.69C361.638 18.75 361.631 18.8167 361.618 18.89H357.408V18.22H361.128L360.868 18.59C360.868 17.9767 360.731 17.5067 360.458 17.18C360.191 16.8467 359.811 16.68 359.318 16.68C358.811 16.68 358.401 16.8567 358.088 17.21C357.781 17.5567 357.628 18.0267 357.628 18.62C357.628 19.2267 357.781 19.7133 358.088 20.08C358.401 20.44 358.818 20.62 359.338 20.62C359.664 20.62 359.951 20.55 360.198 20.41C360.444 20.2633 360.624 20.0567 360.738 19.79H361.498C361.331 20.2567 361.051 20.6267 360.658 20.9C360.271 21.1667 359.818 21.3 359.298 21.3Z" fill="black"/>
<path d="M351.621 21.2V16.1H352.371V17.3H352.421V21.2H351.621ZM355.271 21.2V17.86C355.271 17.4733 355.174 17.1833 354.981 16.99C354.788 16.7967 354.501 16.7 354.121 16.7C353.788 16.7 353.491 16.7733 353.231 16.92C352.978 17.0667 352.778 17.27 352.631 17.53C352.491 17.79 352.421 18.0933 352.421 18.44L352.291 17.23C352.464 16.85 352.728 16.55 353.081 16.33C353.441 16.11 353.848 16 354.301 16C354.834 16 355.261 16.1533 355.581 16.46C355.908 16.76 356.071 17.1567 356.071 17.65V21.2H355.271Z" fill="black"/>
<path d="M348.467 21.3C347.98 21.3 347.55 21.1867 347.177 20.96C346.803 20.7267 346.51 20.41 346.297 20.01C346.083 19.61 345.977 19.15 345.977 18.63C345.977 18.11 346.08 17.6533 346.287 17.26C346.5 16.86 346.797 16.55 347.177 16.33C347.557 16.11 347.993 16 348.487 16C348.96 16 349.37 16.1033 349.717 16.31C350.07 16.5167 350.34 16.8067 350.527 17.18C350.72 17.5533 350.817 17.9933 350.817 18.5C350.817 18.5667 350.813 18.63 350.807 18.69C350.807 18.75 350.8 18.8167 350.787 18.89H346.577V18.22H350.297L350.037 18.59C350.037 17.9767 349.9 17.5067 349.627 17.18C349.36 16.8467 348.98 16.68 348.487 16.68C347.98 16.68 347.57 16.8567 347.257 17.21C346.95 17.5567 346.797 18.0267 346.797 18.62C346.797 19.2267 346.95 19.7133 347.257 20.08C347.57 20.44 347.987 20.62 348.507 20.62C348.833 20.62 349.12 20.55 349.367 20.41C349.613 20.2633 349.793 20.0567 349.907 19.79H350.667C350.5 20.2567 350.22 20.6267 349.827 20.9C349.44 21.1667 348.987 21.3 348.467 21.3Z" fill="black"/>
<path d="M343.221 21.3C342.735 21.3 342.305 21.1867 341.931 20.96C341.558 20.7267 341.265 20.41 341.051 20.01C340.838 19.61 340.731 19.15 340.731 18.63C340.731 18.11 340.835 17.6533 341.041 17.26C341.255 16.86 341.551 16.55 341.931 16.33C342.311 16.11 342.748 16 343.241 16C343.715 16 344.125 16.1033 344.471 16.31C344.825 16.5167 345.095 16.8067 345.281 17.18C345.475 17.5533 345.571 17.9933 345.571 18.5C345.571 18.5667 345.568 18.63 345.561 18.69C345.561 18.75 345.555 18.8167 345.541 18.89H341.331V18.22H345.051L344.791 18.59C344.791 17.9767 344.655 17.5067 344.381 17.18C344.115 16.8467 343.735 16.68 343.241 16.68C342.735 16.68 342.325 16.8567 342.011 17.21C341.705 17.5567 341.551 18.0267 341.551 18.62C341.551 19.2267 341.705 19.7133 342.011 20.08C342.325 20.44 342.741 20.62 343.261 20.62C343.588 20.62 343.875 20.55 344.121 20.41C344.368 20.2633 344.548 20.0567 344.661 19.79H345.421C345.255 20.2567 344.975 20.6267 344.581 20.9C344.195 21.1667 343.741 21.3 343.221 21.3Z" fill="black"/>
<path d="M338.509 23.35C338.382 23.35 338.279 23.3433 338.199 23.33C338.119 23.3167 338.052 23.3 337.999 23.28V22.65C338.046 22.6633 338.112 22.6767 338.199 22.69C338.279 22.7033 338.366 22.71 338.459 22.71C338.719 22.71 338.899 22.6533 338.999 22.54C339.099 22.4267 339.149 22.2567 339.149 22.03V16.1H339.949V22.07C339.949 22.4833 339.836 22.8 339.609 23.02C339.382 23.24 339.016 23.35 338.509 23.35ZM339.089 14.94V14H340.009V14.94H339.089Z" fill="black"/>
</g>
<defs>
<filter id="filter0_d_87_1117" x="-0.000976562" y="0" width="742.001" height="484" filterUnits="userSpaceOnUse" color-interpolation-filters="sRGB">
<feFlood flood-opacity="0" result="BackgroundImageFix"/>
<feColorMatrix in="SourceAlpha" type="matrix" values="0 0 0 0 0 0 0 0 0 0 0 0 0 0 0 0 0 0 127 0" result="hardAlpha"/>
<feOffset dy="4"/>
<feGaussianBlur stdDeviation="2"/>
<feComposite in2="hardAlpha" operator="out"/>
<feColorMatrix type="matrix" values="0 0 0 0 0 0 0 0 0 0 0 0 0 0 0 0 0 0 0.25 0"/>
<feBlend mode="normal" in2="BackgroundImageFix" result="effect1_dropShadow_87_1117"/>
<feBlend mode="normal" in="SourceGraphic" in2="effect1_dropShadow_87_1117" result="shape"/>
</filter>
</defs>
</svg>
