<svg width="571" height="525" viewBox="0 0 571 525" fill="none" xmlns="http://www.w3.org/2000/svg">
<path opacity="0.54" d="M448.981 49.1295C508.146 66.5717 572.088 112.696 570.985 162.31C569.883 211.923 503.001 265.024 461.843 327.041C420.317 389.057 403.78 459.601 360.417 495.261C317.054 531.308 246.129 532.083 182.555 509.214C118.98 486.346 62.3872 439.446 31.151 378.98C0.282373 318.514 -5.22989 244.094 6.89709 173.55C19.0241 102.619 48.7903 35.5634 97.6657 16.1833C146.541 -3.19689 214.526 24.7105 275.161 33.2378C336.163 42.1527 390.183 31.2998 448.981 49.1295Z" fill="#009C84"/>
<path d="M40.4781 483.302H545.991C549.092 483.302 551.605 480.855 551.605 477.837V477.831C551.605 474.813 549.092 472.366 545.991 472.366H40.4781C37.3773 472.366 34.8637 474.813 34.8637 477.831V477.837C34.8637 480.855 37.3773 483.302 40.4781 483.302Z" fill="#7986BF"/>
<path d="M68.4219 0.431641H97.8337C98.2199 0.431641 98.6024 0.505693 98.9592 0.649563C99.3161 0.793433 99.6403 1.00431 99.9134 1.27015C100.187 1.53598 100.403 1.85158 100.551 2.19891C100.699 2.54624 100.775 2.9185 100.775 3.29445V71.8901H68.4219V0.431641Z" fill="#6675AD"/>
<path d="M66.3417 0.431641H95.7535V71.8901H63.375V3.29445C63.375 2.9185 63.4511 2.54624 63.5989 2.19891C63.7467 1.85158 63.9633 1.53598 64.2364 1.27015C64.5096 1.00431 64.8338 0.793433 65.1906 0.649563C65.5475 0.505693 65.9299 0.431641 66.3162 0.431641H66.3417Z" fill="#7986BF"/>
<path d="M79.1087 30.0592C83.4004 30.0592 86.8796 26.6728 86.8796 22.4954C86.8796 18.3181 83.4004 14.9316 79.1087 14.9316C74.817 14.9316 71.3379 18.3181 71.3379 22.4954C71.3379 26.6728 74.817 30.0592 79.1087 30.0592Z" fill="#6675AD"/>
<path d="M79.1082 25.9288C81.0568 25.9288 82.6364 24.3913 82.6364 22.4947C82.6364 20.5981 81.0568 19.0605 79.1082 19.0605C77.1597 19.0605 75.5801 20.5981 75.5801 22.4947C75.5801 24.3913 77.1597 25.9288 79.1082 25.9288Z" fill="#F3F4FE"/>
<path d="M79.108 69.9197C86.0847 69.9197 91.7404 64.4147 91.7404 57.6239C91.7404 50.8331 86.0847 45.3281 79.108 45.3281C72.1313 45.3281 66.4756 50.8331 66.4756 57.6239C66.4756 64.4147 72.1313 69.9197 79.108 69.9197Z" fill="#6675AD"/>
<path d="M79.1081 63.202C82.2723 63.202 84.8374 60.7053 84.8374 57.6254C84.8374 54.5455 82.2723 52.0488 79.1081 52.0488C75.944 52.0488 73.3789 54.5455 73.3789 57.6254C73.3789 60.7053 75.944 63.202 79.1081 63.202Z" fill="#F3F4FE"/>
<path d="M131.826 0.431641H161.238C161.624 0.431641 162.007 0.505693 162.364 0.649563C162.72 0.793433 163.045 1.00431 163.318 1.27015C163.591 1.53598 163.807 1.85158 163.955 2.19891C164.103 2.54624 164.179 2.9185 164.179 3.29445V71.8901H131.826V0.431641Z" fill="#6675AD"/>
<path d="M129.72 0.431641H159.132V71.8901H126.779V3.29445C126.779 2.9185 126.855 2.54624 127.003 2.19891C127.151 1.85158 127.368 1.53598 127.641 1.27015C127.914 1.00431 128.238 0.793433 128.595 0.649563C128.952 0.505693 129.334 0.431641 129.72 0.431641Z" fill="#7986BF"/>
<path d="M142.513 30.0592C146.805 30.0592 150.284 26.6728 150.284 22.4954C150.284 18.3181 146.805 14.9316 142.513 14.9316C138.221 14.9316 134.742 18.3181 134.742 22.4954C134.742 26.6728 138.221 30.0592 142.513 30.0592Z" fill="#6675AD"/>
<path d="M142.513 25.9288C144.461 25.9288 146.041 24.3913 146.041 22.4947C146.041 20.5981 144.461 19.0605 142.513 19.0605C140.564 19.0605 138.984 20.5981 138.984 22.4947C138.984 24.3913 140.564 25.9288 142.513 25.9288Z" fill="#F3F4FE"/>
<path d="M142.513 69.9197C149.49 69.9197 155.146 64.4147 155.146 57.6239C155.146 50.8331 149.49 45.3281 142.513 45.3281C135.537 45.3281 129.881 50.8331 129.881 57.6239C129.881 64.4147 135.537 69.9197 142.513 69.9197Z" fill="#6675AD"/>
<path d="M142.512 63.202C145.677 63.202 148.242 60.7053 148.242 57.6254C148.242 54.5455 145.677 52.0488 142.512 52.0488C139.348 52.0488 136.783 54.5455 136.783 57.6254C136.783 60.7053 139.348 63.202 142.512 63.202Z" fill="#F3F4FE"/>
<path d="M17.9492 86.2089H209.049L196.468 71.8887H30.537L17.9492 86.2089Z" fill="#D2D6FA"/>
<path d="M173.257 86.209V105.435L159.847 114.62V86.209H173.257Z" fill="#D2D6FA"/>
<path d="M70.4117 86.209V114.62L57.001 105.435V86.209H70.4117Z" fill="#D2D6FA"/>
<path d="M57.002 86.209H70.4127V92.152H57.002V86.209Z" fill="#969ECC"/>
<path d="M159.848 86.209H173.258V92.152H159.848V86.209Z" fill="#969ECC"/>
<path d="M347.674 83.3164H420.476V162.891H347.674V83.3164Z" fill="#D2D6FA"/>
<path d="M354.049 90.2773H414.11V155.923H354.049V90.2773Z" fill="#F3F4FE"/>
<path d="M371.855 111.721L387.965 140.653L359.268 142.51L371.855 111.721Z" fill="#D2D6FA"/>
<path d="M407.04 97.8789L395.811 117.67L384.072 102.195L407.04 97.8789Z" fill="#D2D6FA"/>
<path d="M405.281 127.115L402.927 140.777L392.91 134.157L405.281 127.115Z" fill="#D2D6FA"/>
<path d="M268.766 93.5623C278.167 93.5623 285.788 86.1445 285.788 76.9941C285.788 67.8437 278.167 60.4258 268.766 60.4258C259.365 60.4258 251.744 67.8437 251.744 76.9941C251.744 86.1445 259.365 93.5623 268.766 93.5623Z" fill="#332D52"/>
<path d="M270.843 171.169C279.769 164.497 281.449 152.045 274.594 143.357C267.74 134.668 254.947 133.033 246.021 139.705L194.27 178.385C185.344 185.057 183.664 197.508 190.519 206.197C197.373 214.885 210.166 216.52 219.092 209.848L270.843 171.169Z" fill="#FAEEDE"/>
<path d="M206.747 213.949C218.825 213.949 228.617 204.418 228.617 192.661C228.617 180.904 218.825 171.373 206.747 171.373C194.668 171.373 184.876 180.904 184.876 192.661C184.876 204.418 194.668 213.949 206.747 213.949Z" fill="#F2E6D7"/>
<path d="M163.046 114.89L163.041 114.892C154.821 119.109 151.669 129.013 156.001 137.014L189.736 199.319C194.068 207.32 204.243 210.388 212.463 206.171L212.469 206.168C220.689 201.952 223.841 192.047 219.509 184.046L185.774 121.742C181.442 113.741 171.266 110.673 163.046 114.89Z" fill="#EF948C"/>
<path d="M163.017 142.293C171.463 145.861 181.281 142.09 184.945 133.871C188.61 125.651 184.734 116.096 176.288 112.528L162.915 106.879C154.469 103.311 144.651 107.082 140.986 115.302C137.322 123.521 141.198 133.077 149.644 136.644L163.017 142.293Z" fill="#EF948C"/>
<path d="M168.531 122.042C171.586 123.332 175.136 121.968 176.462 118.995C177.788 116.022 176.386 112.565 173.332 111.275L142.365 98.1943C139.311 96.9041 135.76 98.2683 134.434 101.241C133.109 104.215 134.51 107.671 137.565 108.961L168.531 122.042Z" fill="#EF948C"/>
<path d="M170.71 120.988C172.552 123.688 176.294 124.423 179.067 122.63C181.841 120.836 182.596 117.194 180.754 114.494L170.366 99.27C168.524 96.5702 164.782 95.8351 162.008 97.6282C159.235 99.4213 158.479 103.064 160.322 105.763L170.71 120.988Z" fill="#EA8681"/>
<path d="M172.116 133.157C178.677 133.157 183.995 127.98 183.995 121.594C183.995 115.208 178.677 110.031 172.116 110.031C165.555 110.031 160.236 115.208 160.236 121.594C160.236 127.98 165.555 133.157 172.116 133.157Z" fill="#EA8681"/>
<path d="M270.843 171.169C279.769 164.497 281.449 152.045 274.594 143.357C267.74 134.668 254.947 133.033 246.021 139.705L194.27 178.385C185.344 185.057 183.664 197.508 190.519 206.197C197.373 214.885 210.166 216.52 219.092 209.848L270.843 171.169Z" fill="#F2E6D7"/>
<path d="M206.747 213.949C218.825 213.949 228.617 204.418 228.617 192.661C228.617 180.904 218.825 171.373 206.747 171.373C194.668 171.373 184.876 180.904 184.876 192.661C184.876 204.418 194.668 213.949 206.747 213.949Z" fill="#FAEEDE"/>
<path d="M163.046 114.89L163.041 114.892C154.821 119.109 151.669 129.013 156.001 137.014L189.736 199.319C194.068 207.32 204.243 210.388 212.463 206.171L212.469 206.168C220.689 201.952 223.841 192.047 219.509 184.046L185.774 121.742C181.442 113.741 171.266 110.673 163.046 114.89Z" fill="#EF948C"/>
<path d="M163.017 142.293C171.463 145.861 181.281 142.09 184.945 133.871C188.61 125.651 184.734 116.096 176.288 112.528L162.915 106.879C154.469 103.311 144.651 107.082 140.986 115.302C137.322 123.521 141.198 133.077 149.644 136.644L163.017 142.293Z" fill="#EF948C"/>
<path d="M140.988 115.285C141.585 113.949 142.362 112.696 143.297 111.559C142.106 115.367 142.398 119.469 144.117 123.081C145.837 126.693 148.863 129.561 152.618 131.139L154.245 131.822L160.581 134.498L165.2 143.025L192.71 193.841C194.012 196.246 195.908 198.299 198.227 199.813C200.547 201.328 203.217 202.257 205.997 202.517C208.777 202.777 211.58 202.359 214.154 201.302C216.727 200.245 218.989 198.582 220.738 196.462C219.767 199.568 217.87 202.323 215.287 204.377C212.705 206.432 209.554 207.693 206.233 208.001C202.913 208.309 199.573 207.65 196.639 206.108C193.704 204.565 191.306 202.208 189.75 199.337L157.627 139.994L149.658 136.628C147.647 135.784 145.826 134.561 144.301 133.031C142.776 131.5 141.576 129.691 140.771 127.709C139.965 125.726 139.57 123.607 139.607 121.475C139.644 119.344 140.113 117.24 140.988 115.285Z" fill="#EA8681"/>
<path d="M168.531 122.042C171.586 123.332 175.136 121.968 176.462 118.995C177.788 116.022 176.386 112.565 173.332 111.275L142.365 98.1943C139.311 96.9041 135.76 98.2683 134.434 101.241C133.109 104.215 134.51 107.671 137.565 108.961L168.531 122.042Z" fill="#EF948C"/>
<path d="M170.71 120.988C172.552 123.688 176.294 124.423 179.067 122.63C181.841 120.836 182.596 117.194 180.754 114.494L170.366 99.27C168.524 96.5702 164.782 95.8351 162.008 97.6282C159.235 99.4213 158.479 103.064 160.322 105.763L170.71 120.988Z" fill="#EF948C"/>
<path d="M172.116 133.157C178.677 133.157 183.995 127.98 183.995 121.594C183.995 115.208 178.677 110.031 172.116 110.031C165.555 110.031 160.236 115.208 160.236 121.594C160.236 127.98 165.555 133.157 172.116 133.157Z" fill="#EF948C"/>
<path d="M269.909 191.817C287.548 191.817 301.847 177.899 301.847 160.73C301.847 143.561 287.548 129.643 269.909 129.643C252.27 129.643 237.971 143.561 237.971 160.73C237.971 177.899 252.27 191.817 269.909 191.817Z" fill="#F2E6D7"/>
<path d="M257.612 170.609L259.921 269.657C260.34 287.624 275.643 301.859 294.102 301.451L323.564 300.8C342.023 300.393 356.647 285.497 356.228 267.53L353.919 168.481C353.5 150.514 338.196 136.28 319.738 136.688L290.276 137.338C271.817 137.746 257.193 152.642 257.612 170.609Z" fill="#FAEEDE"/>
<path d="M244.083 159.358C243.894 150.151 247.47 141.249 254.024 134.608C260.579 127.968 269.575 124.134 279.034 123.95L332.709 122.905C342.168 122.721 351.314 126.202 358.136 132.581C364.958 138.961 368.897 147.718 369.086 156.925C369.241 164.446 367.872 171.923 365.057 178.93C362.243 185.936 358.039 192.335 352.684 197.759C347.329 203.184 340.929 207.529 333.849 210.547C326.769 213.564 319.148 215.194 311.42 215.345L304.096 215.487C288.491 215.79 273.402 210.046 262.147 199.52C250.893 188.994 244.395 174.547 244.083 159.358Z" fill="#FAEEDE"/>
<path d="M310.422 214.731H310.48C326.078 214.386 340.897 208.025 351.678 197.047C362.459 186.069 368.319 171.372 367.97 156.19C367.756 146.985 363.794 138.241 356.956 131.88C350.118 125.519 340.964 122.062 331.508 122.271L277.846 123.457C275.394 123.509 272.955 123.809 270.566 124.351L322.079 123.208H322.908C332.219 123.212 341.16 126.761 347.819 133.095C354.478 139.43 358.328 148.048 358.547 157.109C358.862 170.712 354.193 183.98 345.375 194.538C336.558 205.095 324.167 212.254 310.422 214.731Z" fill="#FFF7EE"/>
<path d="M286.674 98.0825L287.363 127.667C287.46 132.097 289.338 136.314 292.593 139.411C295.849 142.509 300.222 144.241 304.774 144.235H305.17C307.457 144.184 309.712 143.695 311.805 142.796C313.897 141.897 315.788 140.605 317.367 138.994C318.947 137.383 320.185 135.485 321.011 133.408C321.836 131.332 322.233 129.117 322.179 126.891L321.949 116.756L321.49 97.3124C321.388 92.8837 319.509 88.6699 316.255 85.5732C313.001 82.4764 308.63 80.743 304.079 80.7441H303.677C299.061 80.8516 294.678 82.7379 291.49 85.9889C288.302 89.2398 286.57 93.5894 286.674 98.0825Z" fill="#EF948C"/>
<path d="M176.242 276.138L176.303 278.739C176.628 292.715 188.532 303.788 202.891 303.471L330.994 300.641C345.352 300.324 356.728 288.737 356.402 274.761L356.341 272.16C356.015 258.184 344.112 247.112 329.753 247.429L201.65 250.258C187.292 250.576 175.916 262.162 176.242 276.138Z" fill="#332D52"/>
<path d="M301.848 275.981V434.889H356.537V275.981C356.537 268.922 353.656 262.152 348.528 257.161C343.4 252.169 336.445 249.365 329.192 249.365C321.94 249.365 314.985 252.169 309.857 257.161C304.729 262.152 301.848 268.922 301.848 275.981Z" fill="#666DA2"/>
<path d="M301.848 275.981V434.889H316.069V300.163C316.071 295.544 317.308 291.004 319.658 286.991C322.008 282.978 325.39 279.629 329.473 277.273C333.555 274.918 338.197 273.637 342.942 273.556C347.688 273.475 352.373 274.598 356.537 276.813V275.981C356.537 268.922 353.656 262.152 348.528 257.161C343.4 252.169 336.445 249.365 329.192 249.365C321.94 249.365 314.985 252.169 309.857 257.161C304.729 262.152 301.848 268.922 301.848 275.981Z" fill="#555A8B"/>
<path d="M301.848 411.998V434.888H356.537V420.357L301.848 411.998Z" fill="#141334"/>
<path d="M121.025 417.06L169.775 436.081L175.281 422.19L228.969 286.812C230.261 283.55 230.881 280.072 230.793 276.576C230.705 273.081 229.911 269.637 228.455 266.441C226.999 263.244 224.911 260.358 222.31 257.947C219.708 255.536 216.644 253.648 213.293 252.39C209.942 251.131 206.368 250.528 202.778 250.613C199.187 250.699 195.648 251.473 192.364 252.89C189.08 254.306 186.115 256.339 183.638 258.871C181.162 261.403 179.221 264.385 177.929 267.648L127.622 394.568L121.045 411.13L121.025 417.06Z" fill="#332D52"/>
<path d="M153.98 457.496L115.716 443.117L123.809 422.713L162.073 437.092L153.98 457.496Z" fill="#EA8681"/>
<path d="M349.703 459.48H308.686V439.037H349.703V459.48Z" fill="#EF948C"/>
<path d="M286.675 98.0826L287.364 127.667C287.397 129.219 287.651 130.759 288.117 132.244H289.393C295.675 132.247 301.874 130.849 307.514 128.158C313.154 125.467 318.086 121.554 321.931 116.719L321.472 97.2753C321.37 92.8466 319.491 88.6328 316.237 85.536C312.982 82.4393 308.612 80.7059 304.061 80.707H303.678C301.389 80.7602 299.133 81.2519 297.04 82.1541C294.946 83.0563 293.056 84.3513 291.477 85.965C289.898 87.5786 288.661 89.4794 287.837 91.5586C287.013 93.6379 286.618 95.8548 286.675 98.0826Z" fill="#EA8681"/>
<path d="M256.467 84.2231C256.467 94.4731 260.501 104.334 267.739 111.779C274.977 119.224 284.87 123.688 295.385 124.253C296.118 124.29 296.852 124.309 297.599 124.309C303.05 124.375 308.46 123.387 313.515 121.402C318.571 119.417 323.172 116.475 327.05 112.747C330.929 109.018 334.008 104.577 336.11 99.6814C338.212 94.7856 339.294 89.5323 339.294 84.2262C339.294 78.9201 338.212 73.6668 336.11 68.7709C334.008 63.8751 330.929 59.4341 327.05 55.7056C323.172 51.977 318.571 49.0351 313.515 47.0504C308.46 45.0657 303.05 44.0777 297.599 44.1437C296.852 44.1437 296.118 44.1437 295.385 44.1996C284.871 44.7633 274.978 49.2257 267.739 56.6697C260.501 64.1136 256.467 73.9736 256.467 84.2231Z" fill="#EF948C"/>
<path d="M256.467 84.2227C256.467 94.4728 260.501 104.333 267.739 111.778C274.977 119.223 284.87 123.687 295.385 124.252C296.52 124.19 297.65 124.091 298.766 123.936C288.907 122.618 279.871 117.87 273.33 110.569C266.789 103.269 263.185 93.9094 263.185 84.2227C263.185 74.5359 266.789 65.1768 273.33 57.8762C279.871 50.5756 288.907 45.8274 298.766 44.5097C297.65 44.3607 296.52 44.2551 295.385 44.1992C284.871 44.7629 274.978 49.2253 267.739 56.6693C260.501 64.1132 256.467 73.9732 256.467 84.2227Z" fill="#EA8681"/>
<path d="M331.623 155.519V155.935C332.025 169.175 341.098 179.67 352.173 179.831H352.888C364.41 179.539 373.559 168.169 373.304 154.445C373.176 146.843 371.517 140.696 366.924 136.255C364.176 133.79 360.911 131.936 357.354 130.822C354.449 129.984 351.368 129.907 348.422 130.598C338.699 132.883 331.419 143.26 331.623 155.519Z" fill="#FAEEDE"/>
<path d="M330.799 155.004V155.426C331.15 164.983 335.986 173.156 342.851 177.161C339.271 172.485 337.265 166.845 337.109 161.015C337.109 160.872 337.109 160.736 337.109 160.593C336.834 148.135 344.28 137.616 354.335 135.355C355.552 135.073 356.797 134.919 358.048 134.896C359.919 134.859 361.785 135.105 363.579 135.622C365.146 136.076 366.647 136.723 368.045 137.547C365.366 133.991 361.591 131.359 357.269 130.033C354.265 129.16 351.077 129.068 348.025 129.766C337.963 132.045 330.518 142.528 330.799 155.004Z" fill="#F2E6D7"/>
<path d="M376.319 148.312C371.575 138.379 359.456 134.069 349.25 138.686C339.045 143.304 334.617 155.1 339.361 165.033L366.864 222.626C371.608 232.559 383.727 236.869 393.932 232.252C404.138 227.634 408.566 215.838 403.822 205.904L376.319 148.312Z" fill="#FAEEDE"/>
<path d="M383.888 235.2C395.967 235.2 405.759 225.669 405.759 213.912C405.759 202.155 395.967 192.624 383.888 192.624C371.809 192.624 362.018 202.155 362.018 213.912C362.018 225.669 371.809 235.2 383.888 235.2Z" fill="#F2E6D7"/>
<path d="M376.319 148.312C371.575 138.379 359.456 134.069 349.25 138.686C339.045 143.304 334.617 155.1 339.361 165.033L366.864 222.626C371.608 232.559 383.727 236.869 393.932 232.252C404.138 227.634 408.566 215.838 403.822 205.904L376.319 148.312Z" fill="#FAEEDE"/>
<path d="M338.582 150.204C340.54 147.195 343.295 144.755 346.557 143.14C349.819 141.525 353.467 140.795 357.119 141.026C360.771 141.257 364.291 142.442 367.311 144.454C370.33 146.467 372.737 149.234 374.278 152.465L401.776 210.056C404.006 214.712 404.289 220.03 402.567 224.886C404.638 221.708 405.744 218.024 405.757 214.26C405.754 211.378 405.101 208.53 403.843 205.92L376.345 148.329C374.637 144.742 371.867 141.734 368.39 139.691C364.912 137.648 360.887 136.663 356.83 136.863C352.774 137.064 348.872 138.44 345.624 140.815C342.377 143.19 339.934 146.455 338.608 150.192L338.582 150.204Z" fill="#FFF7EE"/>
<path d="M383.888 235.2C395.967 235.2 405.759 225.669 405.759 213.912C405.759 202.155 395.967 192.624 383.888 192.624C371.809 192.624 362.018 202.155 362.018 213.912C362.018 225.669 371.809 235.2 383.888 235.2Z" fill="#F2E6D7"/>
<path d="M265.749 75.0312H327.201C338.096 75.0312 346.928 66.4345 346.928 55.8299C346.928 45.2253 338.096 36.6286 327.201 36.6286H265.749C254.854 36.6286 246.022 45.2253 246.022 55.8299C246.022 66.4345 254.854 75.0312 265.749 75.0312Z" fill="#332D52"/>
<path d="M335.412 93.5623C344.813 93.5623 352.434 86.1445 352.434 76.9941C352.434 67.8437 344.813 60.4258 335.412 60.4258C326.012 60.4258 318.391 67.8437 318.391 76.9941C318.391 86.1445 326.012 93.5623 335.412 93.5623Z" fill="#332D52"/>
<path d="M338.455 93.5618C346.175 93.5618 352.434 87.4702 352.434 79.9557C352.434 72.4413 346.175 66.3496 338.455 66.3496C330.735 66.3496 324.477 72.4413 324.477 79.9557C324.477 87.4702 330.735 93.5618 338.455 93.5618Z" fill="#49466B"/>
<path d="M338.787 97.5117C346.324 97.5117 352.434 91.5646 352.434 84.2285C352.434 76.8924 346.324 70.9453 338.787 70.9453C331.251 70.9453 325.141 76.8924 325.141 84.2285C325.141 91.5646 331.251 97.5117 338.787 97.5117Z" fill="#EF948C"/>
<path d="M337.715 88.3653V80.0812C337.715 79.8742 337.766 79.6702 337.863 79.486C337.96 79.3018 338.101 79.1426 338.273 79.0214C338.445 78.9002 338.645 78.8205 338.855 78.7889C339.065 78.7572 339.28 78.7744 339.482 78.8392C340.656 79.2054 341.68 79.925 342.407 80.8944C343.134 81.8637 343.525 83.0326 343.525 84.2326C343.525 85.4325 343.134 86.6014 342.407 87.5708C341.68 88.5401 340.656 89.2598 339.482 89.626C339.279 89.6898 339.062 89.7057 338.851 89.6725C338.64 89.6392 338.44 89.5578 338.268 89.4347C338.095 89.3117 337.955 89.1507 337.859 88.9648C337.763 88.7789 337.714 88.5734 337.715 88.3653Z" fill="#EA8681"/>
<path d="M268.766 75.3738C283.167 75.3738 294.842 64.0107 294.842 49.9936C294.842 35.9764 283.167 24.6133 268.766 24.6133C254.366 24.6133 242.691 35.9764 242.691 49.9936C242.691 64.0107 254.366 75.3738 268.766 75.3738Z" fill="#332D52"/>
<path d="M245.064 49.9989C245.062 53.0026 245.713 55.9728 246.976 58.7134C248.24 61.454 250.085 63.9027 252.392 65.898C254.699 67.8933 257.414 69.3897 260.359 70.2886C263.303 71.1876 266.41 71.4685 269.474 71.1129C264.172 70.4982 259.285 68.0121 255.739 64.1255C252.193 60.2388 250.235 55.2215 250.235 50.0237C250.235 44.8259 252.193 39.8086 255.739 35.922C259.285 32.0353 264.172 29.5493 269.474 28.9346C266.41 28.579 263.303 28.8599 260.359 29.7588C257.414 30.6577 254.699 32.1542 252.392 34.1495C250.085 36.1447 248.24 38.5935 246.976 41.3341C245.713 44.0747 245.062 47.0448 245.064 50.0486V49.9989Z" fill="#49466B"/>
<path d="M289.413 52.1047C299.322 52.1047 307.354 44.2865 307.354 34.6422C307.354 24.9979 299.322 17.1797 289.413 17.1797C279.505 17.1797 271.473 24.9979 271.473 34.6422C271.473 44.2865 279.505 52.1047 289.413 52.1047Z" fill="#332D52"/>
<path d="M301.854 469.634H353.965C353.965 462.908 351.22 456.457 346.334 451.701C341.447 446.944 334.82 444.272 327.909 444.272C320.999 444.272 314.372 446.944 309.485 451.701C304.599 456.457 301.854 462.908 301.854 469.634Z" fill="#332D52"/>
<path d="M301.854 469.633H313.886C313.889 464.112 315.671 458.731 318.981 454.247C322.291 449.763 326.962 446.402 332.337 444.638C328.597 444.018 324.762 444.199 321.101 445.169C317.44 446.138 314.04 447.873 311.138 450.253C308.236 452.632 305.902 455.599 304.299 458.946C302.695 462.293 301.861 465.94 301.854 469.633Z" fill="#49466B"/>
<path d="M294.637 465.044C294.639 465.54 294.69 466.035 294.79 466.522C294.839 466.759 294.9 466.993 294.975 467.224C295.047 467.452 295.132 467.676 295.23 467.894C295.51 468.548 295.888 469.157 296.353 469.701C296.506 469.882 296.666 470.049 296.838 470.217C297.007 470.382 297.186 470.538 297.374 470.683C298.718 471.764 300.408 472.354 302.152 472.353H357.76C359.239 472.356 360.66 471.796 361.72 470.792C362.78 469.788 363.393 468.42 363.43 466.982C363.467 465.543 362.923 464.147 361.916 463.093C360.909 462.039 359.518 461.411 358.041 461.343L316.354 458.617L302.516 457.722C301.27 457.66 300.029 457.904 298.905 458.43C298.579 458.586 298.263 458.762 297.961 458.958C297.666 459.15 297.383 459.357 297.112 459.579C296.844 459.815 296.595 460.071 296.366 460.343C296.213 460.523 296.066 460.709 295.932 460.902C295.449 461.594 295.095 462.364 294.886 463.175C294.821 463.408 294.77 463.644 294.732 463.883C294.669 464.267 294.637 464.655 294.637 465.044Z" fill="#332D52"/>
<path d="M294.637 465.044C294.639 465.541 294.69 466.035 294.79 466.522C294.836 466.76 294.897 466.994 294.975 467.224C295.044 467.453 295.129 467.677 295.23 467.895C295.51 468.548 295.888 469.157 296.353 469.702C296.506 469.882 296.666 470.05 296.838 470.217C297.007 470.382 297.186 470.538 297.374 470.683C298.718 471.764 300.408 472.355 302.152 472.353H319.984C318.316 472.355 316.695 471.816 315.376 470.822C314.057 469.827 313.116 468.434 312.7 466.862C312.284 465.29 312.417 463.627 313.079 462.137C313.741 460.646 314.893 459.412 316.354 458.629L302.516 457.735C301.27 457.673 300.029 457.916 298.905 458.443C298.253 458.749 297.649 459.145 297.112 459.617C296.844 459.853 296.595 460.108 296.366 460.381C296.21 460.558 296.065 460.745 295.932 460.939C295.449 461.632 295.095 462.401 294.886 463.212C294.821 463.445 294.77 463.682 294.732 463.92C294.671 464.292 294.639 464.668 294.637 465.044Z" fill="#49466B"/>
<path d="M156.126 463.893L114.256 446.761L120.891 431.396L155.957 445.743C157.762 446.481 159.191 447.888 159.931 449.652C160.671 451.416 160.66 453.394 159.901 455.151L156.126 463.893Z" fill="#49466B"/>
<path d="M82.6172 439.286L130.659 458.94C133.336 452.739 133.374 445.757 130.762 439.529C128.151 433.302 123.105 428.339 116.734 425.732C110.364 423.126 103.19 423.09 96.7919 425.631C90.3937 428.173 85.2949 433.085 82.6172 439.286Z" fill="#332D52"/>
<path d="M82.6172 439.285L96.1173 444.806C98.2995 439.75 102.106 435.519 106.967 432.747C111.828 429.975 117.481 428.811 123.079 429.43C119.938 426.945 116.246 425.207 112.295 424.353C108.344 423.498 104.242 423.551 100.316 424.508C96.3895 425.464 92.746 427.297 89.6739 429.862C86.6019 432.427 84.1858 435.654 82.6172 439.285Z" fill="#49466B"/>
<path d="M159.305 461.667L90.2928 429.517C89.3751 429.09 88.3779 428.849 87.3615 428.808C86.3452 428.767 85.3309 428.927 84.38 429.279C83.4292 429.631 82.5617 430.167 81.8299 430.855C81.0982 431.543 80.5176 432.368 80.1231 433.281C79.74 434.166 79.5399 435.117 79.5343 436.078C79.5287 437.038 79.7176 437.991 80.0902 438.881C80.4629 439.771 81.012 440.58 81.7062 441.264C82.4004 441.947 83.2261 442.49 84.1361 442.863L154.667 471.721C156.051 472.286 157.61 472.294 159 471.742C160.39 471.19 161.498 470.124 162.081 468.777C162.644 467.472 162.671 466.005 162.154 464.681C161.637 463.358 160.617 462.278 159.305 461.667Z" fill="#332D52"/>
<path d="M80.1228 433.286C79.3511 435.074 79.3403 437.087 80.0928 438.883C80.8453 440.678 82.2995 442.11 84.1358 442.862L100.571 449.588C98.9938 448.942 97.6903 447.792 96.8757 446.328C96.0612 444.863 95.7842 443.172 96.0906 441.534C96.397 439.896 97.2685 438.408 98.561 437.318C99.8535 436.227 101.49 435.598 103.199 435.534L90.2989 429.517C89.3805 429.089 88.3823 428.847 87.3649 428.806C86.3476 428.765 85.3323 428.926 84.3806 429.278C83.429 429.631 82.5608 430.168 81.8289 430.857C81.097 431.546 80.5166 432.372 80.1228 433.286Z" fill="#49466B"/>
<path d="M383.895 243.869L388.201 255.817L395.774 276.863L466.171 472.385H481.872L427.91 276.863L422.104 255.817L418.806 243.869H383.895Z" fill="#441242"/>
<path d="M388.201 255.817L395.774 276.863H427.91L422.105 255.817H388.201Z" fill="#2F073A"/>
<path d="M159.018 243.869L154.711 255.817L147.138 276.863L76.7412 472.385H61.04L115.002 276.863L120.808 255.817L124.106 243.869H159.018Z" fill="#441242"/>
<path d="M154.711 255.817L147.138 276.863H115.002L120.808 255.817H154.711Z" fill="#2F073A"/>
<path d="M462.865 264.915H88.8887C86.4081 264.915 84.0291 263.956 82.2751 262.249C80.521 260.541 79.5356 258.226 79.5356 255.811V243.876H472.225V255.805C472.225 257.002 471.984 258.187 471.514 259.292C471.044 260.398 470.354 261.402 469.485 262.249C468.616 263.095 467.584 263.766 466.448 264.223C465.312 264.681 464.094 264.916 462.865 264.915Z" fill="#441242"/>
<path d="M40.9491 249.489H510.804C515.54 249.489 519.379 245.753 519.379 241.143C519.379 236.534 515.54 232.797 510.804 232.797H40.9491C36.2134 232.797 32.3744 236.534 32.3744 241.143C32.3744 245.753 36.2134 249.489 40.9491 249.489Z" fill="#D8BA9F"/>
<path d="M32.375 241.143C32.3767 243.356 33.2806 245.478 34.8884 247.042C36.4961 248.607 38.6761 249.487 40.9497 249.489H510.805C513.079 249.489 515.26 248.609 516.868 247.044C518.476 245.479 519.38 243.356 519.38 241.143C519.382 240.157 519.203 239.179 518.85 238.255C518.243 239.856 517.146 241.237 515.708 242.212C514.269 243.187 512.558 243.709 510.805 243.707H40.9497C39.8236 243.709 38.7083 243.493 37.6681 243.073C36.6278 242.653 35.6832 242.037 34.8887 241.261C34.0088 240.414 33.3333 239.387 32.9109 238.255C32.5562 239.178 32.3747 240.157 32.375 241.143Z" fill="#C89F87"/>
<path d="M457.997 260.071C459.748 260.071 461.168 258.689 461.168 256.985C461.168 255.28 459.748 253.898 457.997 253.898C456.246 253.898 454.826 255.28 454.826 256.985C454.826 258.689 456.246 260.071 457.997 260.071Z" fill="#D8BA9F"/>
<path d="M457.308 260.952C459.443 260.952 461.174 259.267 461.174 257.189C461.174 255.111 459.443 253.426 457.308 253.426C455.172 253.426 453.441 255.111 453.441 257.189C453.441 259.267 455.172 260.952 457.308 260.952Z" fill="#2F073A"/>
<path d="M457.997 260.071C459.748 260.071 461.168 258.689 461.168 256.985C461.168 255.28 459.748 253.898 457.997 253.898C456.246 253.898 454.826 255.28 454.826 256.985C454.826 258.689 456.246 260.071 457.997 260.071Z" fill="#D8BA9F"/>
<path d="M454.826 256.985C454.826 257.808 455.162 258.598 455.761 259.18C456.359 259.763 457.17 260.09 458.016 260.09H458.348C457.592 259.98 456.902 259.609 456.403 259.046C455.904 258.482 455.63 257.763 455.63 257.019C455.63 256.275 455.904 255.556 456.403 254.992C456.902 254.429 457.592 254.058 458.348 253.948C458.237 253.942 458.127 253.942 458.016 253.948C457.182 253.948 456.381 254.266 455.785 254.833C455.189 255.401 454.845 256.173 454.826 256.985Z" fill="#C89F87"/>
<path d="M457.998 258.655C458.159 258.705 458.327 258.73 458.496 258.729C458.976 258.729 459.437 258.544 459.777 258.213C460.117 257.882 460.308 257.434 460.308 256.966C460.308 256.498 460.117 256.049 459.777 255.719C459.437 255.388 458.976 255.202 458.496 255.202C458.327 255.202 458.159 255.227 457.998 255.277C458.378 255.378 458.714 255.598 458.953 255.903C459.193 256.209 459.322 256.582 459.322 256.966C459.322 257.35 459.193 257.723 458.953 258.028C458.714 258.333 458.378 258.554 457.998 258.655Z" fill="#F5EAE4"/>
<path d="M440.261 260.071C442.012 260.071 443.432 258.689 443.432 256.985C443.432 255.28 442.012 253.898 440.261 253.898C438.51 253.898 437.09 255.28 437.09 256.985C437.09 258.689 438.51 260.071 440.261 260.071Z" fill="#D8BA9F"/>
<path d="M439.571 260.952C441.707 260.952 443.438 259.267 443.438 257.189C443.438 255.111 441.707 253.426 439.571 253.426C437.436 253.426 435.705 255.111 435.705 257.189C435.705 259.267 437.436 260.952 439.571 260.952Z" fill="#2F073A"/>
<path d="M440.261 260.071C442.012 260.071 443.432 258.689 443.432 256.985C443.432 255.28 442.012 253.898 440.261 253.898C438.51 253.898 437.09 255.28 437.09 256.985C437.09 258.689 438.51 260.071 440.261 260.071Z" fill="#D8BA9F"/>
<path d="M437.096 256.985C437.096 257.808 437.432 258.598 438.03 259.18C438.628 259.763 439.44 260.09 440.286 260.09H440.617C439.862 259.98 439.171 259.609 438.673 259.046C438.174 258.482 437.899 257.763 437.899 257.019C437.899 256.275 438.174 255.556 438.673 254.992C439.171 254.429 439.862 254.058 440.617 253.948C440.507 253.942 440.396 253.942 440.286 253.948C439.452 253.948 438.651 254.266 438.054 254.833C437.458 255.401 437.114 256.173 437.096 256.985Z" fill="#C89F87"/>
<path d="M440.262 258.655C440.423 258.705 440.59 258.73 440.759 258.729C441.24 258.729 441.701 258.544 442.041 258.213C442.38 257.882 442.571 257.434 442.571 256.966C442.571 256.498 442.38 256.049 442.041 255.719C441.701 255.388 441.24 255.202 440.759 255.202C440.59 255.202 440.423 255.227 440.262 255.277C440.642 255.378 440.978 255.598 441.217 255.903C441.456 256.209 441.586 256.582 441.586 256.966C441.586 257.35 441.456 257.723 441.217 258.028C440.978 258.333 440.642 258.554 440.262 258.655Z" fill="#F5EAE4"/>
<path d="M95.4668 260.071C97.218 260.071 98.6376 258.689 98.6376 256.985C98.6376 255.28 97.218 253.898 95.4668 253.898C93.7155 253.898 92.2959 255.28 92.2959 256.985C92.2959 258.689 93.7155 260.071 95.4668 260.071Z" fill="#D8BA9F"/>
<path d="M96.1553 260.952C98.2906 260.952 100.022 259.267 100.022 257.189C100.022 255.111 98.2906 253.426 96.1553 253.426C94.0201 253.426 92.2891 255.111 92.2891 257.189C92.2891 259.267 94.0201 260.952 96.1553 260.952Z" fill="#2F073A"/>
<path d="M95.4668 260.071C97.218 260.071 98.6376 258.689 98.6376 256.985C98.6376 255.28 97.218 253.898 95.4668 253.898C93.7155 253.898 92.2959 255.28 92.2959 256.985C92.2959 258.689 93.7155 260.071 95.4668 260.071Z" fill="#D8BA9F"/>
<path d="M98.638 256.985C98.638 257.808 98.3019 258.598 97.7036 259.18C97.1054 259.763 96.294 260.09 95.448 260.09H95.1162C95.8721 259.98 96.5623 259.609 97.0611 259.046C97.56 258.482 97.8344 257.763 97.8344 257.019C97.8344 256.275 97.56 255.556 97.0611 254.992C96.5623 254.429 95.8721 254.058 95.1162 253.948C95.2267 253.942 95.3375 253.942 95.448 253.948C96.282 253.948 97.0829 254.266 97.6792 254.833C98.2755 255.401 98.6196 256.173 98.638 256.985Z" fill="#C89F87"/>
<path d="M95.4668 258.655C95.3059 258.705 95.138 258.73 94.9691 258.729C94.4886 258.729 94.0277 258.544 93.6879 258.213C93.3481 257.882 93.1572 257.434 93.1572 256.966C93.1572 256.498 93.3481 256.049 93.6879 255.719C94.0277 255.388 94.4886 255.202 94.9691 255.202C95.138 255.202 95.3059 255.227 95.4668 255.277C95.0901 255.382 94.7589 255.604 94.5231 255.908C94.2873 256.213 94.1597 256.584 94.1597 256.966C94.1597 257.347 94.2873 257.718 94.5231 258.023C94.7589 258.328 95.0901 258.55 95.4668 258.655Z" fill="#F5EAE4"/>
<path d="M113.203 260.071C114.954 260.071 116.374 258.689 116.374 256.985C116.374 255.28 114.954 253.898 113.203 253.898C111.452 253.898 110.032 255.28 110.032 256.985C110.032 258.689 111.452 260.071 113.203 260.071Z" fill="#D8BA9F"/>
<path d="M113.892 260.952C116.027 260.952 117.758 259.267 117.758 257.189C117.758 255.111 116.027 253.426 113.892 253.426C111.756 253.426 110.025 255.111 110.025 257.189C110.025 259.267 111.756 260.952 113.892 260.952Z" fill="#2F073A"/>
<path d="M113.203 260.071C114.954 260.071 116.374 258.689 116.374 256.985C116.374 255.28 114.954 253.898 113.203 253.898C111.452 253.898 110.032 255.28 110.032 256.985C110.032 258.689 111.452 260.071 113.203 260.071Z" fill="#D8BA9F"/>
<path d="M116.367 256.985C116.367 257.808 116.031 258.598 115.433 259.18C114.835 259.763 114.023 260.09 113.177 260.09H112.846C113.602 259.98 114.292 259.609 114.791 259.046C115.289 258.482 115.564 257.763 115.564 257.019C115.564 256.275 115.289 255.556 114.791 254.992C114.292 254.429 113.602 254.058 112.846 253.948C112.956 253.942 113.067 253.942 113.177 253.948C114.011 253.948 114.812 254.266 115.409 254.833C116.005 255.401 116.349 256.173 116.367 256.985Z" fill="#C89F87"/>
<path d="M113.203 258.655C113.042 258.705 112.874 258.73 112.705 258.729C112.225 258.729 111.764 258.544 111.424 258.213C111.084 257.882 110.894 257.434 110.894 256.966C110.894 256.498 111.084 256.049 111.424 255.719C111.764 255.388 112.225 255.202 112.705 255.202C112.874 255.202 113.042 255.227 113.203 255.277C112.823 255.378 112.487 255.598 112.248 255.903C112.008 256.209 111.879 256.582 111.879 256.966C111.879 257.35 112.008 257.723 112.248 258.028C112.487 258.333 112.823 258.554 113.203 258.655Z" fill="#F5EAE4"/>
<path d="M306.099 212.866C309.415 212.57 311.857 209.714 311.553 206.487C311.25 203.259 308.316 200.882 305 201.178L286.302 202.843C282.986 203.139 280.544 205.995 280.847 209.222C281.151 212.45 284.085 214.827 287.401 214.531L306.099 212.866Z" fill="#EA8681"/>
<path d="M307.36 223.537C313.921 223.537 319.24 218.36 319.24 211.974C319.24 205.588 313.921 200.411 307.36 200.411C300.799 200.411 295.48 205.588 295.48 211.974C295.48 218.36 300.799 223.537 307.36 223.537Z" fill="#EA8681"/>
<path d="M297.031 216.577L297.031 216.583C296.938 225.627 304.395 233.031 313.687 233.121L386.039 233.822C395.33 233.912 402.937 226.653 403.029 217.609L403.029 217.603C403.122 208.56 395.665 201.155 386.373 201.065L314.021 200.365C304.73 200.275 297.123 207.533 297.031 216.577Z" fill="#EF948C"/>
<path d="M321.695 229.599C328.932 224.059 330.186 213.859 324.496 206.815C318.806 199.772 308.326 198.553 301.089 204.093L289.629 212.864C282.392 218.404 281.137 228.604 286.828 235.647C292.518 242.691 302.998 243.91 310.235 238.37L321.695 229.599Z" fill="#EF948C"/>
<path d="M306.011 215.251C308.629 213.248 309.082 209.558 307.024 207.01C304.965 204.463 301.175 204.022 298.558 206.025L272.022 226.335C269.405 228.338 268.952 232.028 271.01 234.576C273.068 237.123 276.859 237.565 279.476 235.561L306.011 215.251Z" fill="#EF948C"/>
<path d="M306.099 212.866C309.415 212.57 311.857 209.714 311.553 206.487C311.25 203.259 308.316 200.882 305 201.178L286.302 202.843C282.986 203.139 280.544 205.995 280.847 209.222C281.151 212.45 284.085 214.827 287.401 214.531L306.099 212.866Z" fill="#EF948C"/>
<path d="M307.358 223.537C313.919 223.537 319.238 218.36 319.238 211.974C319.238 205.588 313.919 200.411 307.358 200.411C300.797 200.411 295.479 205.588 295.479 211.974C295.479 218.36 300.797 223.537 307.358 223.537Z" fill="#EF948C"/>
<path d="M297.031 216.577L297.031 216.583C296.938 225.627 304.395 233.031 313.687 233.121L386.039 233.822C395.33 233.912 402.937 226.653 403.029 217.609L403.029 217.603C403.122 208.56 395.665 201.155 386.373 201.065L314.021 200.365C304.73 200.275 297.123 207.533 297.031 216.577Z" fill="#EF948C"/>
<path d="M321.695 229.599C328.932 224.059 330.186 213.859 324.496 206.815C318.806 199.772 308.326 198.553 301.089 204.093L289.629 212.864C282.392 218.404 281.137 228.604 286.828 235.647C292.518 242.691 302.998 243.91 310.235 238.37L321.695 229.599Z" fill="#EF948C"/>
<path d="M285.208 231.542C287.941 234.925 291.943 237.112 296.332 237.624C300.722 238.135 305.141 236.928 308.617 234.268L310.531 232.796L315.43 229.07L322.334 229.133L384.334 229.754C388.797 229.797 393.095 228.113 396.282 225.072C399.469 222.031 401.285 217.883 401.331 213.539V213.322C401.332 211.995 401.165 210.672 400.833 209.385C402.26 211.835 403.007 214.604 403.002 217.421V217.588C402.982 219.739 402.527 221.864 401.663 223.844C400.799 225.823 399.543 227.617 397.967 229.124C396.39 230.631 394.524 231.821 392.475 232.626C390.426 233.43 388.234 233.835 386.025 233.815L317.121 233.157L310.294 238.379C308.104 240.054 305.517 241.168 302.77 241.619C300.023 242.07 297.204 241.845 294.57 240.963C291.936 240.081 289.57 238.571 287.69 236.571C285.809 234.57 284.474 232.143 283.805 229.511C284.22 230.222 284.689 230.9 285.208 231.542Z" fill="#F3A6A0"/>
<path d="M306.011 215.251C308.629 213.248 309.082 209.558 307.024 207.01C304.965 204.463 301.175 204.022 298.558 206.025L272.022 226.335C269.405 228.338 268.952 232.028 271.01 234.576C273.068 237.123 276.859 237.565 279.476 235.561L306.011 215.251Z" fill="#EF948C"/>
<path d="M313.256 224.614C315.541 222.865 315.937 219.644 314.14 217.42C312.343 215.196 309.034 214.81 306.749 216.559L299.046 222.456C296.761 224.205 296.365 227.425 298.162 229.65C299.959 231.874 303.268 232.259 305.553 230.51L313.256 224.614Z" fill="#F3A6A0"/>
<path d="M266.233 98.6105C275.955 98.6105 283.836 90.9396 283.836 81.4771C283.836 72.0146 275.955 64.3438 266.233 64.3438C256.512 64.3438 248.631 72.0146 248.631 81.4771C248.631 90.9396 256.512 98.6105 266.233 98.6105Z" stroke="white" stroke-width="2.85" stroke-miterlimit="10"/>
<path d="M307.766 98.6105C317.488 98.6105 325.369 90.9396 325.369 81.4771C325.369 72.0146 317.488 64.3438 307.766 64.3438C298.045 64.3438 290.164 72.0146 290.164 81.4771C290.164 90.9396 298.045 98.6105 307.766 98.6105Z" stroke="white" stroke-width="2.85" stroke-miterlimit="10"/>
<path d="M283.822 82.1484H290.177" stroke="white" stroke-width="2.85" stroke-miterlimit="10"/>
<path d="M121.025 417.06L169.775 436.081L175.281 422.189L127.622 394.567L121.045 411.129L121.025 417.06Z" fill="#141334"/>
<path d="M192.212 227.623H182.234V225.76C182.234 224.913 182.58 224.102 183.195 223.503C183.81 222.904 184.644 222.568 185.513 222.568H188.939C189.809 222.568 190.643 222.904 191.258 223.503C191.873 224.102 192.219 224.913 192.219 225.76V227.623H192.212Z" fill="#ABB2D8"/>
<path d="M202.191 227.623H192.213V225.76C192.218 224.918 192.565 224.112 193.178 223.517C193.791 222.923 194.621 222.588 195.486 222.587H198.912C199.782 222.587 200.616 222.923 201.231 223.522C201.846 224.12 202.191 224.932 202.191 225.779V227.642V227.623Z" fill="#ABB2D8"/>
<path d="M212.175 227.623H202.197V225.76C202.197 224.913 202.542 224.102 203.157 223.503C203.772 222.904 204.607 222.568 205.476 222.568H208.902C209.772 222.568 210.606 222.904 211.221 223.503C211.836 224.102 212.182 224.913 212.182 225.76V227.623H212.175Z" fill="#ABB2D8"/>
<path d="M222.154 227.623H212.175V225.76C212.175 224.913 212.521 224.102 213.136 223.503C213.751 222.904 214.585 222.568 215.455 222.568H218.881C219.751 222.568 220.585 222.904 221.2 223.503C221.815 224.102 222.16 224.913 222.16 225.76V227.623H222.154Z" fill="#ABB2D8"/>
<path d="M232.132 227.623H222.154V225.76C222.154 224.913 222.499 224.102 223.114 223.503C223.729 222.904 224.564 222.568 225.433 222.568H228.859C229.729 222.568 230.563 222.904 231.178 223.503C231.793 224.102 232.139 224.913 232.139 225.76V227.623H232.132Z" fill="#ABB2D8"/>
<path d="M242.117 227.623H232.139V225.76C232.139 224.913 232.484 224.102 233.099 223.503C233.714 222.904 234.548 222.568 235.418 222.568H238.838C239.708 222.568 240.542 222.904 241.157 223.503C241.772 224.102 242.117 224.913 242.117 225.76V227.623Z" fill="#ABB2D8"/>
<path d="M252.089 227.623H242.11V225.76C242.116 224.916 242.464 224.108 243.08 223.513C243.696 222.918 244.529 222.585 245.396 222.587H248.822C249.692 222.587 250.526 222.923 251.141 223.522C251.756 224.12 252.102 224.932 252.102 225.779V227.642L252.089 227.623Z" fill="#ABB2D8"/>
<path d="M155.515 232.797H261.295C263.54 232.797 265.359 231.026 265.359 228.841V228.835C265.359 226.65 263.54 224.879 261.295 224.879H155.515C153.27 224.879 151.451 226.65 151.451 228.835V228.841C151.451 231.026 153.27 232.797 155.515 232.797Z" fill="#5D6295"/>
<path d="M182.828 232.796H87.7661C85.83 232.796 83.9493 232.167 82.4224 231.008C80.8956 229.849 79.8101 228.228 79.3381 226.4L60.8361 154.761C60.514 153.513 60.4887 152.21 60.762 150.95C61.0352 149.691 61.6 148.509 62.4132 147.494C63.2264 146.479 64.2667 145.658 65.455 145.093C66.6433 144.529 67.9482 144.235 69.2705 144.235H153.155C155.091 144.235 156.972 144.864 158.498 146.023C160.025 147.182 161.111 148.804 161.583 150.632L182.828 232.796Z" fill="#666DA2"/>
<path d="M60.8298 154.762L79.3318 226.4C79.8058 228.229 80.8925 229.851 82.4201 231.011C83.9477 232.17 85.8289 232.801 87.7661 232.803H182.828L180.78 224.885H105.688C103.75 224.884 101.868 224.254 100.34 223.094C98.8127 221.934 97.7262 220.311 97.2532 218.483L78.732 146.875C78.5118 146.021 78.4279 145.139 78.4832 144.261H69.2641C67.9446 144.262 66.6425 144.555 65.4566 145.118C64.2707 145.681 63.2321 146.5 62.4193 147.512C61.6066 148.524 61.0411 149.702 60.7657 150.958C60.4903 152.215 60.5122 153.515 60.8298 154.762Z" fill="#5D6295"/>
<path d="M115.877 195.518C118.505 195.518 120.636 193.444 120.636 190.886C120.636 188.327 118.505 186.253 115.877 186.253C113.248 186.253 111.117 188.327 111.117 190.886C111.117 193.444 113.248 195.518 115.877 195.518Z" fill="#ABB2D8"/>
<path d="M109.509 197.797C110.26 198.94 111.265 199.905 112.45 200.62C113.634 201.335 114.969 201.782 116.355 201.928C117.741 202.075 119.143 201.917 120.457 201.466C121.772 201.016 122.966 200.284 123.952 199.324C124.938 198.365 125.69 197.202 126.153 195.922C126.616 194.643 126.778 193.278 126.628 191.929C126.477 190.58 126.018 189.281 125.283 188.128C124.549 186.975 123.558 185.997 122.384 185.266C123.521 187.008 124.014 189.076 123.782 191.128C123.55 193.18 122.606 195.094 121.106 196.554C119.606 198.014 117.64 198.932 115.532 199.158C113.424 199.385 111.299 198.904 109.509 197.797Z" fill="#ABB2D8"/>
<path d="M301.847 439.155H356.537L362.113 425.474L291.895 414.743L301.847 439.155Z" fill="#332D52"/>
<path d="M351.993 436.777C353.878 436.777 355.407 435.289 355.407 433.454C355.407 431.619 353.878 430.132 351.993 430.132C350.108 430.132 348.58 431.619 348.58 433.454C348.58 435.289 350.108 436.777 351.993 436.777Z" fill="#141334"/>
<path d="M352.191 436.776C353.565 436.776 354.68 435.692 354.68 434.354C354.68 433.017 353.565 431.933 352.191 431.933C350.817 431.933 349.703 433.017 349.703 434.354C349.703 435.692 350.817 436.776 352.191 436.776Z" fill="#666DA2"/>
<path d="M352.166 435.939C352.276 435.948 352.387 435.948 352.498 435.939C352.921 435.913 353.318 435.731 353.608 435.431C353.898 435.13 354.06 434.733 354.06 434.321C354.06 433.908 353.898 433.511 353.608 433.211C353.318 432.91 352.921 432.729 352.498 432.703C352.386 432.703 352.275 432.715 352.166 432.74C352.537 432.819 352.87 433.019 353.108 433.307C353.346 433.595 353.476 433.954 353.476 434.324C353.476 434.694 353.346 435.052 353.108 435.341C352.87 435.629 352.537 435.829 352.166 435.907V435.939Z" fill="#332D52"/>
<path d="M352.574 432.33C352.434 432.299 352.291 432.285 352.147 432.286C351.604 432.315 351.094 432.545 350.72 432.929C350.347 433.314 350.139 433.822 350.139 434.351C350.139 434.88 350.347 435.389 350.72 435.773C351.094 436.157 351.604 436.387 352.147 436.416C352.291 436.417 352.434 436.403 352.574 436.372C352.1 436.273 351.674 436.018 351.369 435.65C351.064 435.282 350.898 434.824 350.898 434.351C350.898 433.878 351.064 433.42 351.369 433.052C351.674 432.684 352.1 432.429 352.574 432.33Z" fill="#9DA5D1"/>
<path d="M116.941 420.295L167.701 440.099L178.106 429.424L117.031 394.033L116.941 420.295Z" fill="#262344"/>
<path d="M165.934 434.485C167.819 434.485 169.347 432.997 169.347 431.162C169.347 429.327 167.819 427.84 165.934 427.84C164.049 427.84 162.521 429.327 162.521 431.162C162.521 432.997 164.049 434.485 165.934 434.485Z" fill="#141334"/>
<path d="M166.132 434.485C167.506 434.485 168.62 433.401 168.62 432.063C168.62 430.726 167.506 429.642 166.132 429.642C164.758 429.642 163.644 430.726 163.644 432.063C163.644 433.401 164.758 434.485 166.132 434.485Z" fill="#666DA2"/>
<path d="M166.132 433.641C166.241 433.666 166.352 433.678 166.464 433.678C166.887 433.652 167.284 433.471 167.574 433.17C167.864 432.87 168.026 432.473 168.026 432.06C168.026 431.648 167.864 431.251 167.574 430.95C167.284 430.65 166.887 430.468 166.464 430.443C166.353 430.433 166.242 430.433 166.132 430.443C166.503 430.521 166.835 430.721 167.074 431.01C167.312 431.298 167.442 431.656 167.442 432.026C167.442 432.396 167.312 432.755 167.074 433.043C166.835 433.331 166.503 433.531 166.132 433.61V433.641Z" fill="#332D52"/>
<path d="M166.508 430.051C166.368 430.021 166.224 430.006 166.08 430.008C165.538 430.037 165.027 430.267 164.654 430.651C164.28 431.035 164.072 431.544 164.072 432.073C164.072 432.602 164.28 433.11 164.654 433.494C165.027 433.878 165.538 434.109 166.08 434.138C166.224 434.139 166.368 434.125 166.508 434.094C166.033 433.994 165.608 433.739 165.303 433.372C164.998 433.004 164.832 432.545 164.832 432.073C164.832 431.6 164.998 431.142 165.303 430.774C165.608 430.406 166.033 430.151 166.508 430.051Z" fill="#9DA5D1"/>
</svg>
