<svg width="26" height="27" viewBox="0 0 26 27" fill="none" xmlns="http://www.w3.org/2000/svg">
<g clip-path="url(#clip0_87_1390)">
<g clip-path="url(#clip1_87_1390)">
<path d="M25.2891 14.3314H19.3281C19.43 9.55868 20.6622 9.01691 22.2098 8.86227L22.8066 8.781L22.8066 3.53291L22.1187 3.57341C20.0978 3.69831 17.8636 4.09854 16.373 6.12013C15.0663 7.89232 14.4902 10.7876 14.4902 15.2321L14.4902 23.4678H25.2891V14.3314Z" fill="white"/>
<path d="M11.5107 23.4678L11.5107 14.3314H5.62935C5.73126 9.55868 6.9236 9.01691 8.47118 8.86227L9.02825 8.781V3.53291L8.38007 3.57341C6.3592 3.69831 4.10498 4.09854 2.61436 6.12013C1.30783 7.89232 0.711908 10.7876 0.711908 15.2321L0.711908 23.4678H11.5107Z" fill="white"/>
</g>
</g>
<defs>
<clipPath id="clip0_87_1390">
<rect width="24.5767" height="27" fill="white" transform="matrix(-1 0 0 -1 25.2891 27)"/>
</clipPath>
<clipPath id="clip1_87_1390">
<rect width="24.5767" height="19.9349" fill="white" transform="matrix(-1 0 0 -1 25.2891 23.4678)"/>
</clipPath>
</defs>
</svg>
