<svg width="25" height="27" viewBox="0 0 25 27" fill="none" xmlns="http://www.w3.org/2000/svg">
<g clip-path="url(#clip0_87_1375)">
<g clip-path="url(#clip1_87_1375)">
<path d="M24.6221 14.3314H18.6611C18.763 9.55868 19.9952 9.01691 21.5428 8.86227L22.1396 8.781L22.1396 3.53291L21.4517 3.57341C19.4308 3.69831 17.1966 4.09854 15.706 6.12013C14.3993 7.89232 13.8232 10.7876 13.8232 15.2321L13.8232 23.4678H24.6221V14.3314Z" fill="black"/>
<path d="M10.8438 23.4678L10.8437 14.3314H4.96236C5.06426 9.55868 6.2566 9.01691 7.80419 8.86227L8.36126 8.781V3.53291L7.71308 3.57341C5.69221 3.69831 3.43798 4.09854 1.94737 6.12013C0.640838 7.89232 0.0449162 10.7876 0.0449162 15.2321L0.0449162 23.4678H10.8438Z" fill="black"/>
</g>
</g>
<defs>
<clipPath id="clip0_87_1375">
<rect width="24.5767" height="27" fill="white" transform="matrix(-1 0 0 -1 24.6221 27)"/>
</clipPath>
<clipPath id="clip1_87_1375">
<rect width="24.5767" height="19.9349" fill="white" transform="matrix(-1 0 0 -1 24.6221 23.4678)"/>
</clipPath>
</defs>
</svg>
