<svg width="195" height="17" viewBox="0 0 195 17" fill="none" xmlns="http://www.w3.org/2000/svg">
<path d="M183.324 0.259766H195L194.557 2.23527H188.899L187.734 7.25202H192.477L192.033 9.20153H187.29L186.014 14.7641H191.672L191.256 16.7656H179.58L183.324 0.259766Z" fill="black"/>
<path d="M174.23 5.04274C174.285 4.7828 174.313 4.42756 174.313 3.977C174.313 3.71707 174.295 3.4658 174.258 3.22319C174.221 2.96326 174.156 2.73798 174.063 2.54736C173.971 2.33941 173.832 2.18345 173.647 2.07948C173.463 1.95818 173.222 1.89753 172.926 1.89753C172.594 1.89753 172.288 1.96684 172.011 2.10547C171.734 2.2441 171.484 2.42606 171.262 2.65134C171.059 2.85928 170.892 3.11055 170.763 3.40515C170.652 3.68241 170.597 3.977 170.597 4.28893C170.597 4.73948 170.717 5.08606 170.957 5.32867C171.216 5.57127 171.549 5.77056 171.956 5.92652C172.362 6.08248 172.825 6.21244 173.342 6.31642C173.86 6.42039 174.396 6.5417 174.951 6.68033C175.413 6.80163 175.875 6.95759 176.338 7.14821C176.8 7.33883 177.207 7.59877 177.558 7.92802C177.928 8.23994 178.224 8.65583 178.445 9.1757C178.667 9.67824 178.778 10.3108 178.778 11.0732C178.778 12.165 178.547 13.0834 178.085 13.8285C177.623 14.5737 176.985 15.1802 176.171 15.6481C175.358 16.116 174.387 16.4539 173.259 16.6618C172.15 16.8698 170.939 16.9738 169.626 16.9738C168.295 16.9738 167.204 16.8958 166.353 16.7398C165.521 16.5665 164.865 16.3846 164.384 16.1939C163.811 15.9687 163.386 15.7087 163.108 15.4141L164.051 11.853H168.933C168.914 12.009 168.896 12.2256 168.877 12.5029C168.859 12.7628 168.849 12.9708 168.849 13.1267C168.849 13.3347 168.877 13.5513 168.933 13.7766C168.988 14.0018 169.071 14.2098 169.182 14.4004C169.312 14.591 169.487 14.747 169.709 14.8683C169.931 14.9896 170.208 15.0502 170.541 15.0502C170.911 15.0502 171.235 14.9723 171.512 14.8163C171.808 14.6603 172.048 14.4697 172.233 14.2444C172.436 14.0018 172.584 13.7419 172.677 13.4646C172.788 13.17 172.843 12.8841 172.843 12.6068C172.843 12.2256 172.741 11.905 172.538 11.6451C172.353 11.3852 172.094 11.1685 171.761 10.9952C171.429 10.8046 171.04 10.6487 170.597 10.5274C170.171 10.3887 169.728 10.2501 169.265 10.1115C168.822 9.99017 168.35 9.84287 167.851 9.66958C167.37 9.49629 166.926 9.25368 166.52 8.94176C166.113 8.62984 165.771 8.23994 165.494 7.77205C165.235 7.28684 165.105 6.67166 165.105 5.92652C165.105 4.81746 165.401 3.89036 165.993 3.14521C166.603 2.38274 167.361 1.76756 168.267 1.29967C169.191 0.831792 170.199 0.502541 171.29 0.311923C172.381 0.103974 173.416 0 174.396 0C175.691 0 176.8 0.147297 177.724 0.44189C178.667 0.719153 179.379 1.0484 179.86 1.42964L178.834 5.04274H174.23Z" fill="black"/>
<path d="M153.667 0.259766H159.685L156.413 14.5822H162.043L161.571 16.7656H149.923L153.667 0.259766Z" fill="black"/>
<path d="M139.858 10.8651C139.766 11.2464 139.692 11.5756 139.636 11.8529C139.581 12.1301 139.553 12.3901 139.553 12.6327C139.553 13.2392 139.775 13.7244 140.219 14.0883C140.681 14.4522 141.356 14.6342 142.243 14.6342C142.89 14.6342 143.417 14.5302 143.824 14.3222C144.249 14.1143 144.591 13.837 144.85 13.4905C145.128 13.1439 145.34 12.7453 145.488 12.2948C145.655 11.8442 145.793 11.3677 145.904 10.8651L148.262 0.259766H150.785L148.373 10.9171C148.188 11.7489 147.92 12.5287 147.568 13.2565C147.217 13.9843 146.709 14.6255 146.043 15.18C145.396 15.7346 144.555 16.1765 143.519 16.5057C142.484 16.8176 141.199 16.9736 139.664 16.9736C137.538 16.9736 135.966 16.653 134.949 16.0118C133.932 15.3533 133.424 14.3482 133.424 12.9966C133.424 12.3901 133.507 11.6189 133.673 10.6832C133.84 9.74739 134.052 8.73365 134.311 7.64192L136.003 0.259766H142.299L139.858 10.8651Z" fill="black"/>
<path d="M124.727 9.64342C125.282 9.64342 125.744 9.42681 126.114 8.99358C126.502 8.56036 126.816 8.03182 127.057 7.40798C127.315 6.78413 127.5 6.1343 127.611 5.45847C127.722 4.78263 127.778 4.19345 127.778 3.69091C127.778 3.22302 127.694 2.83312 127.528 2.5212C127.362 2.19195 127.001 2.02732 126.446 2.02732H125.198L123.451 9.64342H124.727ZM123.063 11.307L121.815 16.7656H115.824L119.568 0.259766H125.975C127.029 0.259766 127.99 0.311753 128.859 0.415728C129.728 0.519701 130.477 0.727649 131.106 1.03957C131.734 1.35149 132.224 1.80205 132.576 2.39123C132.927 2.96309 133.103 3.73423 133.103 4.70465C133.103 5.60576 132.945 6.46355 132.631 7.27801C132.335 8.07514 131.845 8.77697 131.161 9.38348C130.496 9.97267 129.627 10.4406 128.554 10.7871C127.482 11.1337 126.178 11.307 124.644 11.307H123.063Z" fill="black"/>
<path d="M112.7 2.23527H108.234L104.934 16.7656H98.9434L102.244 2.23527H97.834L98.3332 0.259766H113.171L112.7 2.23527Z" fill="black"/>
<path d="M85.6045 0.259766H97.2806L96.8368 2.23527H91.1791L90.0142 7.25202H94.7568L94.313 9.20153H89.5705L88.2947 14.7641H93.9525L93.5365 16.7656H81.8604L85.6045 0.259766Z" fill="black"/>
<path d="M71.6562 0.259766H83.3324L82.8886 2.23527H77.2308L76.066 7.25202H80.8085L80.3648 9.20153H75.6222L74.3465 14.7641H80.0042L79.5882 16.7656H67.9121L71.6562 0.259766Z" fill="black"/>
<path d="M64.8458 16.7656H58.356L55.2775 4.83462L52.5596 16.7656H50.0635L53.8076 0.259766H60.4361L63.3482 12.3467L66.0939 0.259766H68.6454L64.8458 16.7656Z" fill="black"/>
<path d="M34.5508 0.259766H46.2269L45.7831 2.23527H40.1253L38.9605 7.25202H43.7031L43.2593 9.20153H38.5168L37.241 14.7641H42.8988L42.4828 16.7656H30.8066L34.5508 0.259766Z" fill="black"/>
<path d="M20.6025 0.259766H32.2786L31.8349 2.23527H26.1771L25.0123 7.25202H29.7548L29.3111 9.20153H24.5685L23.2927 14.7641H28.9505L28.5345 16.7656H16.8584L20.6025 0.259766Z" fill="black"/>
<path d="M0.887496 10.6572H6.10154C6.10154 10.7092 6.0738 10.8391 6.01833 11.0471C5.98136 11.2377 5.93513 11.4716 5.87966 11.7489C5.82419 12.0262 5.76873 12.3294 5.71326 12.6587C5.67628 12.9879 5.65779 13.2912 5.65779 13.5684C5.65779 13.7417 5.67628 13.9237 5.71326 14.1143C5.75024 14.3049 5.81495 14.4869 5.9074 14.6602C5.99984 14.8161 6.12927 14.9548 6.29568 15.0761C6.48057 15.18 6.70245 15.232 6.9613 15.232C7.44203 15.232 7.82106 15.0501 8.0984 14.6862C8.39424 14.3049 8.65309 13.6204 8.87496 12.6327L11.6761 0.259766H17.6945L14.9765 12.1908C14.7361 13.2132 14.3201 14.045 13.7285 14.6862C13.1368 15.31 12.4527 15.7952 11.6761 16.1418C10.9181 16.4884 10.1045 16.7136 9.23551 16.8176C8.3665 16.9389 7.53447 16.9996 6.73942 16.9996C5.81495 16.9996 5.0199 16.9389 4.35428 16.8176C3.68866 16.7136 3.09699 16.5577 2.57929 16.3497C2.08007 16.1418 1.62708 15.8905 1.22031 15.5959C0.813538 15.284 0.406769 14.9461 0 14.5822L0.887496 10.6572Z" fill="black"/>
</svg>
