<svg width="59" height="59" viewBox="0 0 59 59" fill="none" xmlns="http://www.w3.org/2000/svg">
<path d="M43.322 29.4029C51.6529 29.345 58.7941 36.4974 54.623 43.7089C54.401 44.0929 54.1695 44.4722 53.9289 44.8467C50.9467 49.4871 46.6766 53.1684 41.6353 55.4451C36.5939 57.7217 30.9974 58.4962 25.5229 57.6749C20.0483 56.8535 14.9304 54.4715 10.7882 50.817C6.64605 47.1625 3.65722 42.3921 2.18335 37.0831C0.709475 31.7741 0.813721 26.1539 2.48347 20.9026C4.15323 15.6513 7.31693 10.9939 11.5918 7.49387C11.9742 7.18076 12.3641 6.87811 12.7609 6.58612C19.4353 1.67505 27.3302 7.85134 28.2676 16.085C29.136 23.712 35.646 29.4563 43.322 29.4029Z" fill="white"/>
<path d="M28.8148 18.4019L43.528 14.0008L39.3294 28.6641L43.7344 43.2265L28.9607 39.0707L14.2054 43.4307L18.4461 28.8085L13.999 14.2051L28.8148 18.4019Z" fill="black" fill-opacity="0.88"/>
</svg>
