<svg width="441" height="520" viewBox="0 0 441 520" fill="none" xmlns="http://www.w3.org/2000/svg">
<path d="M-0.000976562 90.2834C-0.000976562 73.5611 15.0451 60.86 31.5304 63.6664L343.472 116.772C356.448 118.981 365.94 130.226 365.94 143.389V492.126C365.94 509.144 350.387 521.918 333.693 518.611L21.7516 456.807C9.10867 454.302 -0.000976562 443.211 -0.000976562 430.322V90.2834Z" fill="black"/>
<path d="M74.339 27.985C74.339 11.2626 89.3852 -1.43852 105.87 1.36795L417.812 54.4734C430.788 56.6825 440.28 67.9272 440.28 81.0904V420.512C440.28 437.235 425.234 449.936 408.749 447.13L96.8077 394.024C83.8312 391.815 74.339 380.57 74.339 367.407V27.985Z" fill="url(#paint0_radial_87_1532)"/>
<defs>
<radialGradient id="paint0_radial_87_1532" cx="0" cy="0" r="1" gradientUnits="userSpaceOnUse" gradientTransform="translate(-0.000972612 -37.579) rotate(49.5248) scale(650.995 919.446)">
<stop offset="0.152594" stop-color="#009C84"/>
<stop offset="1" stop-color="white"/>
</radialGradient>
</defs>
</svg>
